<svg width="39" height="39" viewBox="0 0 39 39" fill="none" xmlns="http://www.w3.org/2000/svg">
<path d="M17.8843 6.57348L13.0366 1.64958L0 14.6855V24.3137L0.0340488 24.3476L17.8843 6.57348ZM8.18619 19.4998L13.0331 14.6529L24.3423 25.9621L19.4955 30.8089L8.18619 19.4998ZM24.3476 38.966L6.57348 21.1157L1.64958 25.9634L14.6856 39H24.3135L24.3476 38.966ZM14.6523 0.0338965L32.4268 17.8846L37.3507 13.0371L24.3147 0H14.6862L14.6523 0.0338965ZM14.6495 13.038L19.4963 8.19107L30.8057 19.5004L25.9588 24.3473L14.6495 13.038ZM25.9633 37.3503L39 24.3135V14.6192L21.1157 32.4265L25.9633 37.3503ZM39 39V27.5449L27.5449 39H39ZM0 27.545V39H11.4543L0 27.545ZM38.9664 11.4214L39 11.3878V0H27.5459L38.9664 11.4214ZM0 0V11.4543L11.4548 0H0Z" fill="#DFBC46"/>
</svg>
